<svg width="1476" height="187" viewBox="0 0 1476 187" fill="none" xmlns="http://www.w3.org/2000/svg">
<path d="M87.2857 140.5C71.3857 140.5 62.9857 130.9 62.9857 114.7V58.3C62.9857 42.1 71.3857 32.5 87.2857 32.5C103.186 32.5 111.586 42.1 111.586 58.3V69.4H95.9857V57.25C95.9857 50.35 92.6857 47.5 87.7357 47.5C82.7857 47.5 79.4857 50.35 79.4857 57.25V115.9C79.4857 122.8 82.7857 125.5 87.7357 125.5C92.6857 125.5 95.9857 122.8 95.9857 115.9V99.85H111.586V114.7C111.586 130.9 103.186 140.5 87.2857 140.5ZM117.108 139L134.208 34H156.558L173.658 139H157.158L154.158 118.15V118.45H135.408L132.408 139H117.108ZM137.358 104.2H152.208L144.858 52.3H144.558L137.358 104.2ZM181.663 139V34H205.963C222.463 34 230.563 43.15 230.563 59.95V70.3C230.563 87.1 222.463 96.25 205.963 96.25H198.163V139H181.663ZM198.163 81.25H205.963C211.213 81.25 214.063 78.85 214.063 71.35V58.9C214.063 51.4 211.213 49 205.963 49H198.163V81.25ZM239.524 139V34H256.024V139H239.524ZM281.281 139V49H264.031V34H315.031V49H297.781V139H281.281ZM311.785 139L328.885 34H351.235L368.335 139H351.835L348.835 118.15V118.45H330.085L327.085 139H311.785ZM332.035 104.2H346.885L339.535 52.3H339.235L332.035 104.2ZM376.34 139V34H392.84V124H419.99V139H376.34Z" fill="white"/>
<path d="M451.926 139V34H477.126C493.626 34 501.726 43.15 501.726 59.95V113.05C501.726 129.85 493.626 139 477.126 139H451.926ZM468.426 124H476.826C482.076 124 485.226 121.3 485.226 113.8V59.2C485.226 51.7 482.076 49 476.826 49H468.426V124ZM512.864 139V34H557.864V49H529.364V76.75H552.014V91.75H529.364V124H557.864V139H512.864ZM578.906 139L563.006 34H579.656L590.456 115.45H590.756L601.556 34H616.706L600.806 139H578.906ZM624.631 139V34H669.631V49H641.131V76.75H663.781V91.75H641.131V124H669.631V139H624.631ZM679.124 139V34H695.624V124H722.774V139H679.124ZM753.95 140.5C737.75 140.5 728.9 130.9 728.9 114.1V58.9C728.9 42.1 737.75 32.5 753.95 32.5C770.15 32.5 779 42.1 779 58.9V114.1C779 130.9 770.15 140.5 753.95 140.5ZM753.95 125.5C759.2 125.5 762.5 122.65 762.5 115.15V57.85C762.5 50.35 759.2 47.5 753.95 47.5C748.7 47.5 745.4 50.35 745.4 57.85V115.15C745.4 122.65 748.7 125.5 753.95 125.5ZM790.159 139V34H814.459C830.959 34 839.059 43.15 839.059 59.95V70.3C839.059 87.1 830.959 96.25 814.459 96.25H806.659V139H790.159ZM806.659 81.25H814.459C819.709 81.25 822.559 78.85 822.559 71.35V58.9C822.559 51.4 819.709 49 814.459 49H806.659V81.25ZM848.02 139V34H871.57L882.07 109.15H882.37L892.87 34H916.42V139H900.82V59.5H900.52L888.52 139H874.72L862.72 59.5H862.42V139H848.02ZM928.733 139V34H973.733V49H945.233V76.75H967.883V91.75H945.233V124H973.733V139H928.733ZM983.225 139V34H1003.93L1019.98 96.85H1020.28V34H1034.98V139H1018.03L998.225 62.35H997.925V139H983.225ZM1060.14 139V49H1042.89V34H1093.89V49H1076.64V139H1060.14ZM1149.3 140.5C1133.1 140.5 1124.7 130.9 1124.7 114.1V58.9C1124.7 42.1 1133.1 32.5 1149.3 32.5C1165.5 32.5 1173.9 42.1 1173.9 58.9V67.9H1158.3V57.85C1158.3 50.35 1155 47.5 1149.75 47.5C1144.5 47.5 1141.2 50.35 1141.2 57.85V115.3C1141.2 122.8 1144.5 125.5 1149.75 125.5C1155 125.5 1158.3 122.8 1158.3 115.3V94.75H1150.05V79.75H1173.9V114.1C1173.9 130.9 1165.5 140.5 1149.3 140.5ZM1184.49 139V34H1208.94C1226.04 34 1233.39 41.95 1233.39 58.15V64.6C1233.39 75.4 1229.94 82.3 1222.59 85.3V85.6C1230.84 88.15 1233.54 95.95 1233.54 107.8V126.25C1233.54 131.35 1233.69 135.1 1235.34 139H1218.54C1217.64 136.3 1217.04 134.65 1217.04 126.1V106.9C1217.04 97.15 1214.19 94 1206.69 94H1200.99V139H1184.49ZM1200.99 79H1206.99C1213.14 79 1216.89 76.3 1216.89 67.9V59.8C1216.89 52.3 1214.34 49 1208.49 49H1200.99V79ZM1268.84 140.5C1252.64 140.5 1243.79 130.9 1243.79 114.1V58.9C1243.79 42.1 1252.64 32.5 1268.84 32.5C1285.04 32.5 1293.89 42.1 1293.89 58.9V114.1C1293.89 130.9 1285.04 140.5 1268.84 140.5ZM1268.84 125.5C1274.09 125.5 1277.39 122.65 1277.39 115.15V57.85C1277.39 50.35 1274.09 47.5 1268.84 47.5C1263.59 47.5 1260.29 50.35 1260.29 57.85V115.15C1260.29 122.65 1263.59 125.5 1268.84 125.5ZM1329.05 140.5C1312.85 140.5 1304.45 130.9 1304.45 114.1V34H1320.95V115.3C1320.95 122.8 1324.1 125.5 1329.35 125.5C1334.6 125.5 1337.75 122.8 1337.75 115.3V34H1353.65V114.1C1353.65 130.9 1345.25 140.5 1329.05 140.5ZM1365.4 139V34H1389.7C1406.2 34 1414.3 43.15 1414.3 59.95V70.3C1414.3 87.1 1406.2 96.25 1389.7 96.25H1381.9V139H1365.4ZM1381.9 81.25H1389.7C1394.95 81.25 1397.8 78.85 1397.8 71.35V58.9C1397.8 51.4 1394.95 49 1389.7 49H1381.9V81.25Z" fill="black"/>
<rect x="4.5" y="4.5" width="1467" height="178" stroke="black" stroke-width="9"/>
</svg>
