<svg width="46" height="46" viewBox="0 0 46 46" fill="none" xmlns="http://www.w3.org/2000/svg">
<g clip-path="url(#clip0_134_3)">
<path d="M42.8275 24.2557L42.8298 24.2559C43.0115 24.2712 43.1789 24.3586 43.2952 24.4986C43.4109 24.6378 43.4657 24.8194 43.4467 25.0001L43.1122 28.1829L43.1121 28.1836C43.0937 28.3639 43.0024 28.5295 42.8598 28.642L42.8589 28.6426C42.7174 28.7553 42.5347 28.8059 42.3549 28.7826L42.3549 28.7826L42.3524 28.7823L17.7542 25.8488L18.1631 21.9578L42.8275 24.2557Z" fill="black" stroke="white" stroke-width="0.5"/>
<mask id="path-2-inside-1_134_3" fill="white">
<path d="M15.3537 8.97298C12.9638 9.73372 7.7752 13.3603 7.29509 17.9283C7.04024 20.353 6.53608 25.1571 6.53608 25.1571C6.40265 26.4193 7.61013 26.5861 7.51218 27.5185C7.41423 28.4508 6.1732 28.6027 6.08575 29.4421L5.7623 32.5191C5.71627 32.957 6.03415 33.3496 6.47137 33.3948L10.7585 33.8461C11.1964 33.8921 11.5896 33.575 11.635 33.1363L11.9584 30.0593C12.0474 29.22 10.8643 28.8141 10.9622 27.8818C11.0938 26.6224 11.9486 26.1265 12.7401 26.2104L14.3257 26.3763L15.4756 25.8579L15.9355 21.4753L14.9128 20.7828C13.5143 20.6358 12.6804 19.8299 12.7724 18.9541C13.4289 13.389 15.7332 11.4154 16.5167 10.0137C17.0165 9.1199 16.1967 8.56695 15.3537 8.97298ZM12.7715 18.9631C12.7701 18.9698 12.7697 18.9728 12.7715 18.9631Z"/>
</mask>
<path d="M15.3537 8.97298C12.9638 9.73372 7.7752 13.3603 7.29509 17.9283C7.04024 20.353 6.53608 25.1571 6.53608 25.1571C6.40265 26.4193 7.61013 26.5861 7.51218 27.5185C7.41423 28.4508 6.1732 28.6027 6.08575 29.4421L5.7623 32.5191C5.71627 32.957 6.03415 33.3496 6.47137 33.3948L10.7585 33.8461C11.1964 33.8921 11.5896 33.575 11.635 33.1363L11.9584 30.0593C12.0474 29.22 10.8643 28.8141 10.9622 27.8818C11.0938 26.6224 11.9486 26.1265 12.7401 26.2104L14.3257 26.3763L15.4756 25.8579L15.9355 21.4753L14.9128 20.7828C13.5143 20.6358 12.6804 19.8299 12.7724 18.9541C13.4289 13.389 15.7332 11.4154 16.5167 10.0137C17.0165 9.1199 16.1967 8.56695 15.3537 8.97298ZM12.7715 18.9631C12.7701 18.9698 12.7697 18.9728 12.7715 18.9631Z" fill="black"/>
<path d="M15.3537 8.97298L15.5054 9.44943L15.539 9.43874L15.5707 9.42346L15.3537 8.97298ZM6.53608 25.1571L7.03331 25.2097L7.03335 25.2093L6.53608 25.1571ZM6.08575 29.4421L6.58301 29.4944L6.58306 29.4939L6.08575 29.4421ZM5.7623 32.5191L5.26504 32.4668L5.26504 32.4669L5.7623 32.5191ZM6.47137 33.3948L6.52372 32.8975L6.52277 32.8974L6.47137 33.3948ZM10.7585 33.8461L10.7062 34.3433L10.7062 34.3433L10.7585 33.8461ZM11.635 33.1363L11.1377 33.084L11.1376 33.0849L11.635 33.1363ZM11.9584 30.0593L11.4612 30.0065L11.4611 30.007L11.9584 30.0593ZM10.9622 27.8818L11.4595 27.934L11.4595 27.9337L10.9622 27.8818ZM12.7401 26.2104L12.6874 26.7076L12.6881 26.7077L12.7401 26.2104ZM14.3257 26.3763L14.2737 26.8736L14.408 26.8876L14.5312 26.8321L14.3257 26.3763ZM15.4756 25.8579L15.6811 26.3138L15.9429 26.1957L15.9729 25.9101L15.4756 25.8579ZM15.9355 21.4753L16.4328 21.5275L16.4641 21.2294L16.2159 21.0613L15.9355 21.4753ZM14.9128 20.7828L15.1932 20.3688L15.0895 20.2986L14.9651 20.2855L14.9128 20.7828ZM12.7724 18.9541L12.2758 18.8955L12.2752 18.9019L12.7724 18.9541ZM16.5167 10.0137L16.0803 9.76967L16.0803 9.76974L16.5167 10.0137ZM12.7715 18.9631L13.2632 19.0541L12.2826 18.8586L12.7715 18.9631ZM15.2021 8.49654C13.9201 8.90461 11.9619 10.0477 10.2639 11.6604C8.56648 13.2725 7.05553 15.4241 6.79783 17.876L7.79235 17.9805C8.01476 15.8644 9.33817 13.9188 10.9526 12.3855C12.5664 10.8527 14.3974 9.8021 15.5054 9.44943L15.2021 8.49654ZM6.79783 17.876C6.6704 19.0884 6.48064 20.8957 6.32275 22.3998C6.2438 23.1518 6.17281 23.8281 6.12157 24.3164C6.09594 24.5605 6.07525 24.7577 6.06097 24.8938C6.05383 24.9618 6.04829 25.0146 6.04453 25.0504C6.04266 25.0683 6.04122 25.0819 6.04026 25.0911C6.03978 25.0956 6.03942 25.0991 6.03917 25.1014C6.03905 25.1026 6.03896 25.1035 6.0389 25.104C6.03887 25.1043 6.03885 25.1046 6.03883 25.1047C6.03882 25.1048 6.03882 25.1048 6.03881 25.1049C6.03881 25.1049 6.03881 25.1049 6.53608 25.1571C7.03335 25.2093 7.03335 25.2093 7.03335 25.2092C7.03336 25.2092 7.03336 25.2091 7.03337 25.2091C7.03339 25.2089 7.03341 25.2087 7.03344 25.2084C7.0335 25.2078 7.03359 25.207 7.03371 25.2058C7.03396 25.2035 7.03432 25.2 7.0348 25.1954C7.03576 25.1863 7.03719 25.1726 7.03907 25.1547C7.04283 25.119 7.04837 25.0662 7.05551 24.9981C7.06979 24.862 7.09048 24.6649 7.1161 24.4208C7.16735 23.9325 7.23833 23.2562 7.31728 22.5042C7.47518 21.0001 7.66493 19.1929 7.79235 17.9805L6.79783 17.876ZM6.03885 25.1045C5.94989 25.9461 6.33211 26.4406 6.63242 26.7883C6.94886 27.1546 7.03694 27.2566 7.01491 27.4662L8.00944 27.5707C8.08537 26.848 7.61868 26.4003 7.38922 26.1346C7.14364 25.8503 6.98884 25.6303 7.03331 25.2097L6.03885 25.1045ZM7.01491 27.4662C6.99106 27.6933 6.84259 27.8446 6.48798 28.1206C6.20308 28.3422 5.65837 28.7191 5.58845 29.3903L6.58306 29.4939C6.60059 29.3257 6.72011 29.207 7.10208 28.9098C7.41433 28.6668 7.93535 28.276 8.00944 27.5707L7.01491 27.4662ZM5.58849 29.3898L5.26504 32.4668L6.25956 32.5714L6.58301 29.4944L5.58849 29.3898ZM5.26504 32.4669C5.1902 33.1789 5.70692 33.8184 6.41998 33.8921L6.52277 32.8974C6.36139 32.8807 6.24235 32.7351 6.25956 32.5714L5.26504 32.4669ZM6.41903 33.892L10.7062 34.3433L10.8108 33.3488L6.52372 32.8975L6.41903 33.892ZM10.7062 34.3433C11.4177 34.4181 12.0583 33.9028 12.1323 33.1878L11.1376 33.0849C11.1208 33.2472 10.9751 33.3661 10.8108 33.3488L10.7062 34.3433ZM12.1322 33.1886L12.4556 30.1115L11.4611 30.007L11.1377 33.084L12.1322 33.1886ZM12.4556 30.112C12.5268 29.4407 12.0718 28.9589 11.8391 28.683C11.5494 28.3395 11.4357 28.1609 11.4595 27.934L10.465 27.8295C10.3908 28.535 10.8197 29.0254 11.0747 29.3278C11.3869 29.6978 11.479 29.8386 11.4612 30.0065L12.4556 30.112ZM11.4595 27.9337C11.514 27.4124 11.7098 27.1026 11.9215 26.9284C12.1373 26.7507 12.4121 26.6784 12.6874 26.7076L12.7929 25.7132C12.2766 25.6585 11.7282 25.7922 11.2859 26.1563C10.8394 26.5239 10.5421 27.0917 10.465 27.8298L11.4595 27.9337ZM12.6881 26.7077L14.2737 26.8736L14.3777 25.879L12.7921 25.7131L12.6881 26.7077ZM14.5312 26.8321L15.6811 26.3138L15.2702 25.4021L14.1202 25.9205L14.5312 26.8321ZM15.9729 25.9101L16.4328 21.5275L15.4383 21.4231L14.9784 25.8057L15.9729 25.9101ZM16.2159 21.0613L15.1932 20.3688L14.6325 21.1968L15.6552 21.8893L16.2159 21.0613ZM14.9651 20.2855C14.3456 20.2204 13.8928 20.0133 13.6152 19.7675C13.342 19.5255 13.2434 19.2562 13.2697 19.0064L12.2752 18.9019C12.2094 19.5278 12.4817 20.0993 12.9521 20.516C13.4181 20.9288 14.0815 21.1982 14.8605 21.2801L14.9651 20.2855ZM13.269 19.0127C13.5895 16.2957 14.3091 14.4733 15.0342 13.165C15.3984 12.5079 15.7674 11.9741 16.0997 11.5108C16.4228 11.0604 16.7393 10.6402 16.9532 10.2577L16.0803 9.76974C15.9023 10.0881 15.637 10.4402 15.2871 10.928C14.9465 11.4028 14.5515 11.9731 14.1596 12.6802C13.3725 14.1004 12.6118 16.0474 12.2759 18.8956L13.269 19.0127ZM16.9531 10.2577C17.1163 9.96601 17.1956 9.65885 17.1611 9.35964C17.1259 9.05451 16.9758 8.79605 16.752 8.61619C16.3146 8.26459 15.6813 8.26023 15.1368 8.52251L15.5707 9.42346C15.8692 9.2797 16.0673 9.3488 16.1256 9.39563C16.1496 9.41497 16.1634 9.43696 16.1677 9.4742C16.1727 9.51737 16.1671 9.6145 16.0803 9.76967L16.9531 10.2577ZM12.2799 18.8721C12.2796 18.8734 12.2798 18.8723 12.2803 18.8699C12.2805 18.8691 12.2807 18.8679 12.2811 18.8663C12.2813 18.8651 12.282 18.8618 12.283 18.8575C12.2834 18.8555 12.2845 18.851 12.286 18.8452C12.2867 18.8424 12.288 18.8373 12.2898 18.831C12.291 18.8269 12.2952 18.8122 12.3021 18.7938C12.3051 18.786 12.3133 18.7643 12.327 18.738C12.3337 18.7252 12.3474 18.7003 12.3686 18.6715C12.3833 18.6518 12.4353 18.5827 12.5303 18.5307C12.6561 18.4618 12.8615 18.4279 13.0495 18.5545C13.1835 18.6447 13.2295 18.7688 13.2403 18.7988C13.2683 18.8758 13.2696 18.9419 13.2698 18.9468C13.2713 18.9805 13.2689 19.0073 13.2686 19.0102C13.2679 19.019 13.2671 19.026 13.2667 19.0294C13.2653 19.0411 13.2637 19.0503 13.2636 19.0507C13.2632 19.0535 13.2628 19.0557 13.2626 19.0569C13.2621 19.0594 13.2618 19.0612 13.2616 19.0623C13.2611 19.0645 13.2608 19.0663 13.2605 19.0677L12.2826 18.8586C12.2816 18.8633 12.2806 18.868 12.2798 18.8723C12.2794 18.8744 12.2789 18.8772 12.2783 18.8803C12.278 18.8818 12.2776 18.8843 12.2771 18.8873C12.277 18.8879 12.2754 18.8973 12.274 18.9091C12.2735 18.9125 12.2727 18.9195 12.272 18.9284C12.2718 18.9313 12.2693 18.958 12.2708 18.9918C12.271 18.9966 12.2724 19.0628 12.3003 19.1398C12.3112 19.1698 12.3571 19.2939 12.4912 19.3841C12.6792 19.5106 12.8845 19.4768 13.0103 19.4079C13.1054 19.3559 13.1573 19.2868 13.172 19.267C13.1933 19.2383 13.2069 19.2134 13.2136 19.2006C13.2273 19.1743 13.2356 19.1526 13.2385 19.1447C13.2454 19.1264 13.2497 19.1116 13.2508 19.1075C13.2527 19.1012 13.254 19.0961 13.2547 19.0932C13.2562 19.0874 13.2573 19.0828 13.2577 19.0808C13.2594 19.0734 13.2606 19.0673 13.2608 19.0664C13.2617 19.062 13.2625 19.0577 13.2632 19.0541L12.2799 18.8721Z" fill="white" mask="url(#path-2-inside-1_134_3)"/>
<line x1="11.5949" y1="34.4684" x2="15.4282" y2="45.9684" stroke="black" stroke-width="0.2"/>
<line x1="7.76544" y1="38.3491" x2="5.86913" y2="50.322" stroke="black" stroke-width="0.2"/>
<line x1="6.15363" y1="34.5819" x2="-3.77619" y2="41.5348" stroke="black" stroke-width="0.2"/>
</g>
<defs>
<clipPath id="clip0_134_3">
<rect width="46" height="46" fill="white"/>
</clipPath>
</defs>
</svg>
