<svg width="35" height="35" viewBox="0 0 35 35" fill="none" xmlns="http://www.w3.org/2000/svg">
<g clip-path="url(#clip0_136_11)">
<mask id="mask0_136_11" style="mask-type:luminance" maskUnits="userSpaceOnUse" x="0" y="0" width="35" height="35">
<path d="M0.25 0.25H34.75V34.75H0.25V0.25Z" fill="white" stroke="white" stroke-width="0.5"/>
</mask>
<g mask="url(#mask0_136_11)">
<path d="M3.33232 34.5485L3.3323 34.5485L1.04971 32.266L1.04922 32.2655C0.919141 32.1361 0.84713 31.9589 0.849485 31.7751L0.849494 31.7741C0.85104 31.591 0.927548 31.4151 1.06039 31.2885L1.0604 31.2885L1.0622 31.2868L18.9772 13.8657L21.7706 16.6591L4.31185 34.5356L4.31027 34.5373C4.18262 34.6704 4.00724 34.7464 3.82313 34.7487C3.63979 34.7509 3.46215 34.6783 3.33232 34.5485Z" fill="black" stroke="white" stroke-width="0.5"/>
<mask id="path-3-inside-1_136_11" fill="white">
<path d="M33.7292 22.7001C34.6499 20.3439 35.1008 13.9747 31.8248 10.6988C30.0858 8.95983 26.6401 5.5152 26.6401 5.5152C25.7354 4.60943 24.8382 5.45006 24.1695 4.78142C23.5008 4.11281 24.1695 3.0436 23.5671 2.44224L21.3604 0.235532C21.0464 -0.0785107 20.5369 -0.0785107 20.2239 0.235532L17.1489 3.30959C16.8348 3.62362 16.8338 4.13311 17.1489 4.44717L19.3556 6.65385C19.9569 7.25631 21.0262 6.58658 21.6948 7.25522C22.5984 8.15777 22.4446 9.14256 21.8763 9.70973L20.7399 10.8473L20.4163 12.0778L23.5597 15.2202L24.7518 14.8581C25.7547 13.8551 26.9157 13.7131 27.5438 14.3411C31.4894 18.3882 31.5738 21.4472 32.1752 22.9511C32.5585 23.9103 33.5123 23.6187 33.7292 22.7001ZM27.5373 14.3347C27.533 14.3293 27.5309 14.3271 27.5373 14.3347Z"/>
</mask>
<path d="M33.7292 22.7001C34.6499 20.3439 35.1008 13.9747 31.8248 10.6988C30.0858 8.95983 26.6401 5.5152 26.6401 5.5152C25.7354 4.60943 24.8382 5.45006 24.1695 4.78142C23.5008 4.11281 24.1695 3.0436 23.5671 2.44224L21.3604 0.235532C21.0464 -0.0785107 20.5369 -0.0785107 20.2239 0.235532L17.1489 3.30959C16.8348 3.62362 16.8338 4.13311 17.1489 4.44717L19.3556 6.65385C19.9569 7.25631 21.0262 6.58658 21.6948 7.25522C22.5984 8.15777 22.4446 9.14256 21.8763 9.70973L20.7399 10.8473L20.4163 12.0778L23.5597 15.2202L24.7518 14.8581C25.7547 13.8551 26.9157 13.7131 27.5438 14.3411C31.4894 18.3882 31.5738 21.4472 32.1752 22.9511C32.5585 23.9103 33.5123 23.6187 33.7292 22.7001ZM27.5373 14.3347C27.533 14.3293 27.5309 14.3271 27.5373 14.3347Z" fill="black"/>
<path d="M33.7292 22.7001L33.2635 22.5182L33.2507 22.551L33.2426 22.5852L33.7292 22.7001ZM31.8248 10.6988L31.4712 11.0523L31.4712 11.0523L31.8248 10.6988ZM26.6401 5.5152L26.2864 5.86854L26.2866 5.8688L26.6401 5.5152ZM24.1695 4.78142L24.5231 4.42786L24.5231 4.42784L24.1695 4.78142ZM23.5671 2.44224L23.2135 2.79579L23.2138 2.79612L23.5671 2.44224ZM21.3604 0.235532L21.714 -0.118016L21.714 -0.118028L21.3604 0.235532ZM20.2239 0.235532L20.5774 0.589144L20.5781 0.58848L20.2239 0.235532ZM17.1489 3.30959L16.7954 2.95597L16.7953 2.95602L17.1489 3.30959ZM17.1489 4.44717L17.5024 4.09361L17.5019 4.09305L17.1489 4.44717ZM19.3556 6.65385L19.7095 6.30063L19.7092 6.30029L19.3556 6.65385ZM21.6948 7.25522L21.3412 7.60877L21.3415 7.60899L21.6948 7.25522ZM21.8763 9.70973L21.5231 9.35583L21.5226 9.35636L21.8763 9.70973ZM20.7399 10.8473L20.3862 10.4939L20.2907 10.5895L20.2563 10.7201L20.7399 10.8473ZM20.4163 12.0778L19.9327 11.9506L19.8597 12.2283L20.0628 12.4314L20.4163 12.0778ZM23.5597 15.2202L23.2062 15.5738L23.4182 15.7857L23.705 15.6986L23.5597 15.2202ZM24.7518 14.8581L24.8971 15.3365L25.0168 15.3001L25.1053 15.2116L24.7518 14.8581ZM27.5438 14.3411L27.9019 13.992L27.8973 13.9875L27.5438 14.3411ZM32.1752 22.9511L32.6394 22.7656L32.6394 22.7655L32.1752 22.9511ZM27.5373 14.3347L27.1575 14.6598L27.9258 14.0199L27.5373 14.3347ZM34.1949 22.8821C34.6885 21.6189 35.0355 19.3591 34.8492 17.0049C34.663 14.6515 33.9357 12.1025 32.1783 10.3452L31.4712 11.0523C32.9899 12.5709 33.6751 14.8445 33.8523 17.0837C34.0294 19.3222 33.6906 21.4251 33.2635 22.5182L34.1949 22.8821ZM32.1783 10.3452C31.3088 9.47572 30.0126 8.1798 28.9338 7.10128C28.3944 6.56201 27.9094 6.07709 27.5592 5.72698C27.3841 5.55193 27.2427 5.41058 27.1451 5.313C27.0963 5.2642 27.0584 5.22635 27.0327 5.2007C27.0199 5.18787 27.0101 5.17809 27.0036 5.17152C27.0003 5.16824 26.9978 5.16575 26.9961 5.16409C26.9953 5.16326 26.9947 5.16263 26.9942 5.16221C26.994 5.16201 26.9939 5.16185 26.9938 5.16174C26.9937 5.16169 26.9937 5.16165 26.9937 5.16163C26.9936 5.1616 26.9936 5.16159 26.6401 5.5152C26.2866 5.8688 26.2866 5.86882 26.2867 5.86884C26.2867 5.86887 26.2867 5.86891 26.2868 5.86896C26.2869 5.86907 26.287 5.86922 26.2872 5.86943C26.2877 5.86985 26.2883 5.87048 26.2891 5.87131C26.2908 5.87297 26.2933 5.87545 26.2966 5.87874C26.3031 5.88531 26.3129 5.89509 26.3257 5.90791C26.3514 5.93357 26.3893 5.97142 26.4381 6.02021C26.5357 6.11779 26.6771 6.25914 26.8522 6.43419C27.2024 6.7843 27.6874 7.26922 28.2268 7.80848C29.3056 8.887 30.6018 10.1829 31.4712 11.0523L32.1783 10.3452ZM26.9939 5.16185C26.392 4.55925 25.7633 4.54495 25.3005 4.55964C24.813 4.5751 24.675 4.57977 24.5231 4.42786L23.816 5.13498C24.3327 5.65171 24.9777 5.57038 25.3322 5.55913C25.7113 5.5471 25.9836 5.56538 26.2864 5.86854L26.9939 5.16185ZM24.5231 4.42784C24.3587 4.26353 24.3346 4.04921 24.3434 3.59633C24.3505 3.23177 24.4005 2.56766 23.9203 2.08837L23.2138 2.79612C23.3361 2.91818 23.353 3.08936 23.3436 3.5769C23.3358 3.97611 23.3116 4.63071 23.816 5.135L24.5231 4.42784ZM23.9206 2.08869L21.714 -0.118016L21.0069 0.58908L23.2135 2.79579L23.9206 2.08869ZM21.714 -0.118028C21.205 -0.626985 20.3785 -0.627867 19.8698 -0.117416L20.5781 0.58848C20.6953 0.470845 20.8878 0.469964 21.0069 0.589092L21.714 -0.118028ZM19.8705 -0.118079L16.7954 2.95597L17.5024 3.6632L20.5774 0.589144L19.8705 -0.118079ZM16.7953 2.95602C16.2867 3.4646 16.2841 4.29113 16.7959 4.80129L17.5019 4.09305C17.3835 3.9751 17.3829 3.78264 17.5024 3.66315L16.7953 2.95602ZM16.7953 4.80073L19.002 7.00741L19.7092 6.30029L17.5024 4.09361L16.7953 4.80073ZM19.0017 7.00707C19.4812 7.4874 20.1455 7.43693 20.51 7.42962C20.9629 7.42053 21.1771 7.44459 21.3412 7.60877L22.0483 6.90167C21.5439 6.39721 20.8891 6.42181 20.4899 6.42982C20.0023 6.4396 19.8314 6.42275 19.7095 6.30063L19.0017 7.00707ZM21.3415 7.60899C21.7162 7.98325 21.8353 8.33444 21.8376 8.61228C21.8398 8.89553 21.7215 9.15783 21.5231 9.35583L22.2295 10.0636C22.5994 9.69446 22.8422 9.18078 22.8375 8.60421C22.8328 8.02221 22.577 7.42974 22.0481 6.90145L21.3415 7.60899ZM21.5226 9.35636L20.3862 10.4939L21.0936 11.2007L22.2301 10.0631L21.5226 9.35636ZM20.2563 10.7201L19.9327 11.9506L20.8998 12.2049L21.2234 10.9745L20.2563 10.7201ZM20.0628 12.4314L23.2062 15.5738L23.9132 14.8666L20.7698 11.7242L20.0628 12.4314ZM23.705 15.6986L24.8971 15.3365L24.6064 14.3797L23.4144 14.7418L23.705 15.6986ZM25.1053 15.2116C25.5501 14.7669 26.0006 14.5428 26.3706 14.4812C26.7348 14.4204 27.0099 14.5143 27.1903 14.6946L27.8973 13.9875C27.4496 13.5398 26.8302 13.3907 26.2061 13.4948C25.5879 13.5978 24.9564 13.9463 24.3982 14.5045L25.1053 15.2116ZM27.1858 14.6901C29.1125 16.6664 30.0845 18.3878 30.65 19.7871C30.934 20.4899 31.1183 21.1181 31.2705 21.6728C31.4186 22.2122 31.5469 22.7267 31.7109 23.1368L32.6394 22.7655C32.5027 22.4237 32.395 21.9918 32.2348 21.4081C32.0788 20.8398 31.8826 20.1683 31.5772 19.4125C30.9638 17.8946 29.9207 16.0629 27.9018 13.992L27.1858 14.6901ZM31.7109 23.1367C31.8357 23.4491 32.0256 23.7055 32.2811 23.8678C32.5417 24.0333 32.8384 24.0795 33.1203 24.0185C33.6716 23.8992 34.076 23.4072 34.2158 22.815L33.2426 22.5852C33.1655 22.9116 32.9846 23.0247 32.9089 23.0411C32.8773 23.0479 32.8502 23.0446 32.8173 23.0237C32.7793 22.9996 32.7062 22.9327 32.6394 22.7656L31.7109 23.1367ZM27.9172 14.0096C27.9163 14.0085 27.917 14.0093 27.9185 14.0111C27.919 14.0117 27.9197 14.0126 27.9207 14.0138C27.9215 14.0147 27.9235 14.0172 27.9262 14.0206C27.9274 14.0221 27.9301 14.0256 27.9335 14.0301C27.9352 14.0323 27.9381 14.0363 27.9417 14.0414C27.944 14.0447 27.9522 14.0563 27.9616 14.0719C27.9657 14.0787 27.9764 14.0967 27.9875 14.121C27.993 14.1329 28.003 14.1557 28.012 14.1856C28.0183 14.2066 28.0389 14.2766 28.0318 14.3684C28.0237 14.4733 27.966 14.6816 27.7413 14.7845C27.5688 14.8634 27.4178 14.8176 27.3842 14.8071C27.2976 14.78 27.2392 14.7342 27.2373 14.7328C27.2093 14.7122 27.1894 14.6928 27.1876 14.6911C27.1812 14.685 27.1764 14.68 27.174 14.6776C27.1659 14.6692 27.1598 14.6623 27.1596 14.662C27.1578 14.66 27.1563 14.6583 27.1556 14.6575C27.154 14.6556 27.1528 14.6542 27.1522 14.6535C27.1508 14.6518 27.1497 14.6505 27.1489 14.6495L27.9258 14.0199C27.9228 14.0161 27.9198 14.0126 27.917 14.0093C27.9157 14.0077 27.9139 14.0056 27.9119 14.0032C27.9109 14.0021 27.9093 14.0002 27.9073 13.998C27.9069 13.9976 27.9007 13.9905 27.8926 13.9821C27.8902 13.9797 27.8853 13.9747 27.8789 13.9685C27.8771 13.9668 27.8573 13.9474 27.8292 13.9268C27.8273 13.9254 27.769 13.8796 27.6823 13.8525C27.6488 13.8421 27.4977 13.7962 27.3252 13.8752C27.1005 13.978 27.0429 14.1863 27.0347 14.2912C27.0277 14.383 27.0482 14.4531 27.0545 14.474C27.0635 14.5039 27.0735 14.5267 27.079 14.5387C27.0901 14.5629 27.1008 14.5809 27.1049 14.5877C27.1143 14.6033 27.1225 14.6149 27.1249 14.6183C27.1285 14.6234 27.1314 14.6274 27.1331 14.6296C27.1365 14.6342 27.1393 14.6377 27.1406 14.6393C27.1451 14.645 27.1489 14.6496 27.1495 14.6504C27.1523 14.6537 27.1551 14.657 27.1575 14.6598L27.9172 14.0096Z" fill="white" mask="url(#path-3-inside-1_136_11)"/>
</g>
</g>
<defs>
<clipPath id="clip0_136_11">
<rect width="35" height="35" fill="white"/>
</clipPath>
</defs>
</svg>
